# xmcd
#
# Track frame offsets: 
#        150
#        17693
#        35209
#        48005
#        66600
#        86551
#        106221
#        123051
#        140923
#        156900
#        183364
#        195529
#        223946
#
# Disc length: 4370 seconds
#
# Revision: 2
# Processed by: cddbd v1.5.2PL0 Copyright (c) Steve Scherf et al.
# Submitted via: ExactAudioCopy v1.1
#
DISCID=bd11100d
DTITLE=Bering Strait - Bering Strait
DYEAR=2003
DGENRE=Country
TTITLE0=What Is It About You
TTITLE1=Tell Me Tonight
TTITLE2=I Could Be Persuaded
TTITLE3=When Going Home
TTITLE4=I'm Not Missing You
TTITLE5=I Could Use A Hero
TTITLE6=The Trouble With Love
TTITLE7=Jagged Edge of a Broken Heart
TTITLE8=Only This Love
TTITLE9=Bearing Strait
TTITLE10=Porushka-Paranya
TTITLE11=Like A Child
TTITLE12=CD Extra
EXTD=YEAR: 2003 ID3G:   2
EXTT0=
EXTT1=
EXTT2=
EXTT3=
EXTT4=
EXTT5=
EXTT6=
EXTT7=
EXTT8=
EXTT9=
EXTT10=
EXTT11=
EXTT12=
PLAYORDER=
